<svg xmlns="http://www.w3.org/2000/svg" viewBox="0 0 1280 720"><rect width="1280" height="720" rx="30" fill="#09110e"/><rect x="20" y="20" width="1240" height="680" rx="22" fill="#0d1713" stroke="#274235"/><rect x="20" y="20" width="1240" height="58" rx="22" fill="#13201a"/><circle cx="54" cy="49" r="8" fill="#4de68b"/><text x="80" y="57" font-family="Segoe UI" font-size="22" fill="#ecfff4">SDM Download Center</text><rect x="42" y="105" width="220" height="560" rx="16" fill="#101c17"/><text x="70" y="145" font-family="Segoe UI" font-size="18" fill="#82a994">Downloads</text><rect x="58" y="164" width="188" height="44" rx="10" fill="#183126"/><text x="78" y="192" font-family="Segoe UI" font-size="17" fill="#d9ffea">All downloads</text><text x="290" y="130" font-family="Segoe UI" font-size="16" fill="#82a994">Active queue</text><g font-family="Segoe UI"><rect x="290" y="154" width="930" height="132" rx="16" fill="#111f19" stroke="#254236"/><rect x="315" y="181" width="70" height="70" rx="14" fill="#1c4732"/><text x="331" y="225" font-size="17" fill="#80f0ae">MP4</text><text x="410" y="195" font-size="19" fill="#f1fff6">Project presentation.mp4</text><text x="410" y="225" font-size="15" fill="#87aa98">1.28 GB · 31.4 MB/s</text><rect x="410" y="248" width="680" height="10" rx="5" fill="#20332a"/><rect x="410" y="248" width="585" height="10" rx="5" fill="#4de68b"/><text x="1120" y="254" font-size="18" fill="#4de68b">86%</text><rect x="290" y="310" width="930" height="132" rx="16" fill="#111f19" stroke="#254236"/><rect x="315" y="337" width="70" height="70" rx="14" fill="#33432b"/><text x="331" y="381" font-size="17" fill="#d4ef83">ZIP</text><text x="410" y="351" font-size="19" fill="#f1fff6">SDM release package.zip</text><text x="410" y="381" font-size="15" fill="#87aa98">62.2 MB · Completed</text><rect x="410" y="404" width="680" height="10" rx="5" fill="#4de68b"/><text x="1110" y="410" font-size="18" fill="#4de68b">Done</text><rect x="290" y="466" width="930" height="132" rx="16" fill="#111f19" stroke="#254236"/><rect x="315" y="493" width="70" height="70" rx="14" fill="#243c4a"/><text x="331" y="537" font-size="17" fill="#88d9ff">MP3</text><text x="410" y="507" font-size="19" fill="#f1fff6">Browser audio capture.mp3</text><text x="410" y="537" font-size="15" fill="#87aa98">8.4 MB · 7.2 MB/s</text><rect x="410" y="560" width="680" height="10" rx="5" fill="#20332a"/><rect x="410" y="560" width="430" height="10" rx="5" fill="#4de68b"/><text x="1120" y="566" font-size="18" fill="#4de68b">63%</text></g></svg>